<svg xmlns="http://www.w3.org/2000/svg" width="256" height="256" viewBox="0 0 256 256">
  <title>ZwoGain — camera capture recovery</title>
  <rect x="8" y="8" width="240" height="240" rx="48" fill="#112332"/>
  <path d="M191 76 A83 83 0 1 0 209 154" fill="none" stroke="#4ad8c3" stroke-width="13" stroke-linecap="round"/>
  <path d="M168 79 L202 91 L198 56" fill="#4ad8c3"/>
  <path d="M81 103 H98 L107 89 H140 L149 103 H174 Q184 103 184 113 V158 Q184 170 172 170 H84 Q72 170 72 158 V115 Q72 103 81 103Z" fill="#e8f4f5"/>
  <circle cx="128" cy="135" r="26" fill="#112332"/>
  <circle cx="128" cy="135" r="16" fill="#4ad8c3"/>
  <path d="M128 121 L131 132 L142 135 L131 138 L128 149 L125 138 L114 135 L125 132Z" fill="#112332"/>
  <circle cx="166" cy="115" r="4" fill="#112332"/>
</svg>
